<svg xmlns="http://www.w3.org/2000/svg" viewBox="0 0 44.74 31.7"><defs><style>.a{fill:none;stroke:#fff;stroke-width:0.57px;}</style></defs><title>1Recurso 2ico_2</title><path class="a" d="M2.1,10.77l.79-.63L.35,2.59S2.13,1.73,2.92,2L5.36,8.79l0-.92,2.08-.1L5.46,1.37A4,4,0,0,1,8,.68L9.84,5.89l7.65-1h2.44l2.21,0,7.68.46L31,.35a4.44,4.44,0,0,1,2.67.36l-1,4.85,3.3.2.4-1.81a1.77,1.77,0,0,1,1.42.3l-.56,2.83.13.23.56-.07,1.78-5.4a2.48,2.48,0,0,1,2,.3L39.87,9.35l.76.66-1.12,4.81-.63.1,0,.76,5.5.36.1,3.33-1.09.3.07.49,1,.1v1.48l-.66.26v.49l.66.17v.79L19.93,31.4,13,29l-.1-3.23L9.25,24.74,4,25.83.45,24.51v-.82l.17,0V23l-.23-.13V21.38l.89-.3v-.43l-1-.33V16.83l3.86-.4v-.69l-.4-.23Z"/><polyline class="a" points="2.1 10.77 2.92 10.7 4.14 10.4 5.16 10.07 5.95 9.58 5.36 8.82"/><polyline class="a" points="7.4 7.77 8.13 9.84 7.17 10.6 8.43 10.7 9.68 10.3 12.61 9.28 12.81 15.15 11.39 15.81 10.07 16.07 8.79 15.91 7.17 10.8"/><polyline class="a" points="10.27 7.4 16.18 6.81 17.15 6.78 17.22 6.51 18.52 6.42 20.76 6.48 21.02 6.68 22.93 6.68 29.26 6.94"/><polyline class="a" points="17.26 6.58 17.72 17.19 16.67 17.49 16.57 18.81 18.74 19.2 22.24 18.84 22.4 17.46 21.77 17 21.11 6.55"/><polyline class="a" points="1.27 20.65 5.1 21.64 5.85 21.31"/><line class="a" x1="1.27" y1="21.18" x2="4.96" y2="22.17"/><polyline class="a" points="0.38 21.45 4.57 22.6 5 22.2 5.1 21.68"/><path class="a" d="M11.26,23.42l.23-.23,8.17,1.71,4.78-1,.69-1.52s.33-.63.72-.59.23,1,.23,1l-.49.86,3.89-.82s.63.69-.36,1-9.29,2.27-9.29,2.27L11.36,24Z"/><polyline class="a" points="8.43 17.98 19.5 19.63 33.9 17.49"/><line class="a" x1="19.6" y1="19.67" x2="19.66" y2="24.91"/><polyline class="a" points="19.73 26.09 19.8 28.7 19.17 28.53 19.14 29.65 19.8 30.02 44.29 22.66"/><line class="a" x1="19.83" y1="28.6" x2="43.73" y2="22.01"/><polyline class="a" points="43.3 19.73 39.97 20.49 39.9 21.05 44.25 20.36"/><line class="a" x1="9.68" y1="10.4" x2="11.26" y2="15.74"/><line class="a" x1="8.43" y1="10.67" x2="10.04" y2="15.91"/><polyline class="a" points="7.14 10.96 5.89 21.15 6.08 22.04 6.51 22.27 7.01 22.01 7.47 21.68 8.23 21.58"/><polyline class="a" points="9.25 24.58 9.25 21.61 8.16 21.81 7.63 21.64"/><polyline class="a" points="8.11 21.63 7.05 22.85 7.05 24.89 4.65 24.2"/><line class="a" x1="17.49" y1="4.87" x2="16.86" y2="6.71"/><polyline class="a" points="9.81 5.95 10.96 9.25 11.06 9.41 10.83 9.61 10.37 9.78 9.78 9.94 9.05 10.17 8.29 10.44 7.8 10.24 8.1 9.91"/><line class="a" x1="0.32" y1="16.9" x2="6.25" y2="17.59"/><polyline class="a" points="32.65 10.3 31.4 15.68 29.78 15.81 28.53 15.54 27.34 14.98 27.31 9.08 29.68 10.01 31.1 10.24 32.72 10.17 32.29 9.74"/><line class="a" x1="29.82" y1="10.11" x2="28.66" y2="15.35"/><line class="a" x1="31.1" y1="10.27" x2="29.95" y2="15.68"/><polyline class="a" points="27.34 9.05 28.76 8.99 29.72 5.29"/><polyline class="a" points="32.65 5.62 31.73 9.48 32.16 9.58 31.99 9.84 30.94 9.81 29.65 9.48 28.73 8.99"/><polyline class="a" points="32.29 7.11 37.3 7.3 36.61 5.85 36.01 5.79"/><polyline class="a" points="37.86 7.17 37.13 9.18 38.16 9.71 38.98 9.88 39.9 9.97 40.56 9.94"/><polyline class="a" points="37.03 9.15 35.81 9.25 35.98 14.23 36.48 14.62 38.26 15.05 39.41 14.75"/><line class="a" x1="38.35" y1="9.65" x2="37.43" y2="14.69"/><line class="a" x1="39.61" y1="9.94" x2="38.32" y2="15.02"/><line class="a" x1="44.16" y1="16.04" x2="36.01" y2="17.16"/><polyline class="a" points="30.67 15.84 30.05 17.72 28.89 17.89 27.91 17.82 27.38 17.72 28.04 15.28"/><polyline class="a" points="38.55 14.95 37.96 16.7 36.8 16.9 36.21 16.77 35.98 16.11 36.41 14.52"/><polyline class="a" points="22.6 18.18 23.09 18.28 27.34 17.75"/><line class="a" x1="30.44" y1="17.33" x2="33.84" y2="16.86"/><line class="a" x1="8.75" y1="15.87" x2="8.19" y2="21.64"/><polyline class="a" points="4.14 15.74 4.77 15.81 5.92 15.51 6.61 15.12"/><polyline class="a" points="4.5 22.66 4.21 23.46 4.67 24.21"/><line class="a" x1="4.14" y1="23.55" x2="4.14" y2="25.6"/><line class="a" x1="5.92" y1="9.51" x2="8" y2="9.51"/><line class="a" x1="10.96" y1="9.22" x2="12.58" y2="9.22"/><line class="a" x1="3.05" y1="10.67" x2="4.7" y2="15.64"/><line class="a" x1="4.34" y1="10.37" x2="5.92" y2="15.31"/><line class="a" x1="5.95" y1="9.61" x2="6.94" y2="12.18"/><path class="a" d="M12.64,9.28h2.14l0,.86a2.52,2.52,0,0,0-.33.72c0,.2,0,1,0,1L15,13l0,1.58-1.52.63L12.78,15"/><polyline class="a" points="13.37 15.05 13.44 13.27 13.01 12.41 12.84 11.16 13.3 10.21 13.27 9.28"/><line class="a" x1="13.3" y1="10.21" x2="14.65" y2="10.14"/><line class="a" x1="13.44" y1="13.17" x2="14.95" y2="13.01"/><polyline class="a" points="17.82 17.13 19.07 17.39 20.85 17.23 21.74 17.13"/><path class="a" d="M32.95,12l.92-.4.86,0,.33.63,1.15,9a1.32,1.32,0,0,1-.76.46,1.36,1.36,0,0,1-1.09-.33,5.35,5.35,0,0,1-.23-.49Z"/><polyline class="a" points="34.1 20.79 33.24 21.08 33.24 24.18 34.7 24.48 34.73 22.4 33.84 21.18 33.34 21.12"/><line class="a" x1="34.76" y1="22.37" x2="44.16" y2="20.39"/><polyline class="a" points="32.12 8.36 33.15 8.39 33.21 10.83 32.65 11.1"/><polyline class="a" points="33.24 8.39 35.68 8.46 35.78 10.8 33.24 10.8"/><line class="a" x1="35.82" y1="10.83" x2="35.06" y2="11.92"/></svg>