<svg xmlns="http://www.w3.org/2000/svg" viewBox="0 0 38 32.24"><defs><style>.a{fill:none;stroke:#fff;stroke-width:0.75px;}</style></defs><title>1Recurso 4ico_4</title><polygon class="a" points="0.44 8.67 15.22 15.32 15.85 31.59 1.92 23.85 0.44 8.67"/><polyline class="a" points="15.22 15.16 37.6 5.15 36.97 20.02 15.93 31.59"/><polygon class="a" points="18.59 17.2 34 9.84 33.45 15.32 20 21.97 18.59 17.2"/><polygon class="a" points="3.33 12.82 13.03 17.2 12.56 22.75 4.27 19 3.33 12.82"/><polyline class="a" points="0.44 8.51 22.58 0.53 22.58 11.8"/><line class="a" x1="22.58" y1="0.57" x2="37.6" y2="5.19"/><polyline class="a" points="33.14 7.03 25.08 4.37 25.47 8.98 27.19 9.69"/><line class="a" x1="31.42" y1="11.1" x2="33.69" y2="11.8"/><polyline class="a" points="4.43 10.31 20.15 4.45 19.68 9.61 10.69 13.21"/><line class="a" x1="24.92" y1="14.15" x2="30.71" y2="16.57"/><line class="a" x1="12.88" y1="18.29" x2="7.95" y2="20.48"/></svg>