<svg xmlns="http://www.w3.org/2000/svg" viewBox="0 0 35.72 22.78"><defs><style>.a{fill:#fff;}</style></defs><title>1Recurso 3ico_3</title><path class="a" d="M22.83,18.53h-.37l-.78.55H14l-.79-.55H0v2.32a2,2,0,0,0,2,1.94H33.68a2,2,0,0,0,2-1.94V18.53Zm11.76,2.32a.89.89,0,0,1-.9.86H2a.88.88,0,0,1-.9-.86V19.6H12.89l.78.55H22l.78-.55H34.59Z"/><rect class="a" x="3.91" y="20.51" width="0.99" height="0.55"/><rect class="a" x="6.24" y="20.51" width="0.99" height="0.55"/><path class="a" d="M32.94,17V1.79A1.84,1.84,0,0,0,31.06,0H4.66A1.84,1.84,0,0,0,2.78,1.79V17H3.91V4h27.9V17ZM3.91,3V1.79a.74.74,0,0,1,.75-.72h26.4a.74.74,0,0,1,.75.72V3Z"/><path class="a" d="M17.86,1.48a.57.57,0,0,0-.59.56.59.59,0,0,0,1.17,0,.57.57,0,0,0-.59-.56"/><rect class="a" x="5.67" y="12.98" width="1.13" height="3.31"/><rect class="a" x="8.23" y="12.19" width="1.13" height="4.1"/><rect class="a" x="10.8" y="11.62" width="1.13" height="4.67"/><rect class="a" x="13.36" y="11.06" width="1.13" height="5.24"/><rect class="a" x="15.93" y="10.38" width="1.13" height="5.86"/><rect class="a" x="18.49" y="9.78" width="1.13" height="6.45"/><rect class="a" x="21.06" y="8.93" width="1.13" height="7.31"/><rect class="a" x="23.61" y="8.11" width="1.13" height="8.13"/><rect class="a" x="26.25" y="7.23" width="1.13" height="8.95"/><rect class="a" x="28.8" y="6.69" width="1.13" height="9.49"/></svg>