<svg xmlns="http://www.w3.org/2000/svg" viewBox="0 0 33.96 29.91"><defs><style>.a{fill:none;stroke:#fff;stroke-linecap:round;stroke-linejoin:round;stroke-width:0.75px;}</style></defs><title>1Recurso 1ico_1</title><path class="a" d="M5.71,21.13a14.63,14.63,0,1,1,4.89,5.79M19,8.87V.38m0,29.16V19.82m-7.29-3.87c0-.32,0-.65,0-1C11.65,4,19,.38,19,.38m0,29.16a13.29,13.29,0,0,1-5-5.13M24.07,10.1h8.67m-27.57,0h18.9M19,19.82H32.74m-27.57,0h2.7M19,29.54s7.31-3.6,7.31-14.58S19,.38,19,.38M4.7,18.2C-2.39,25.27,1,29.42,17.58,12.85m-14.36,7c-7.75,9.72,1,12.88,17.64-3.69m-3.28-3.27-2.21-2.2,8.69-.55-.79,8.44-2.42-2.41"/></svg>