<svg xmlns="http://www.w3.org/2000/svg" viewBox="0 0 35.72 22.78"><defs><style>.a{fill:#fff;}</style></defs><title>1Recurso 5ico_5</title><path class="a" d="M22.83,18.53h-.37l-.78.55H14l-.78-.55H0v2.32a2,2,0,0,0,2,1.94H33.68a2,2,0,0,0,2-1.94V18.53Zm11.76,2.32a.89.89,0,0,1-.9.86H2a.88.88,0,0,1-.9-.86V19.6H12.89l.78.55H22l.78-.55H34.59Z"/><rect class="a" x="3.91" y="20.51" width="0.99" height="0.55"/><rect class="a" x="6.24" y="20.51" width="0.99" height="0.55"/><path class="a" d="M32.94,17V1.79A1.84,1.84,0,0,0,31.06,0H4.66A1.84,1.84,0,0,0,2.78,1.79V17H3.91V4h27.9V17ZM3.91,3V1.79a.74.74,0,0,1,.75-.72h26.4a.74.74,0,0,1,.75.72V3Z"/><path class="a" d="M17.86,1.48a.57.57,0,0,0-.59.56.59.59,0,0,0,1.17,0,.57.57,0,0,0-.59-.56"/><path class="a" d="M23.18,8.18H20.67V14h2.51a2.11,2.11,0,0,0,2-1.09,3.88,3.88,0,0,0,.47-2,4.51,4.51,0,0,0-.11-1A2.58,2.58,0,0,0,25.08,9a1.92,1.92,0,0,0-1-.74,3.1,3.1,0,0,0-.9-.13m-.21,1a1.18,1.18,0,0,1,1.11.48A2.73,2.73,0,0,1,24.36,11a3,3,0,0,1-.19,1.11A1.22,1.22,0,0,1,23,13H21.85V9.19Zm-5.74,3.19V14h1V12.38h1.62v-1H18.27V9.73h-1v1.62H15.61v1ZM12.9,8.18H10.11V14H11.3V11.73h1.19a1,1,0,0,1,.69.19,1.1,1.1,0,0,1,.19.74v.54a2.78,2.78,0,0,0,.05.5c0,.08,0,.18.08.31h1.34v-.15a.49.49,0,0,1-.22-.33,2.9,2.9,0,0,1,0-.54V12.6a1.92,1.92,0,0,0-.17-.91,1.09,1.09,0,0,0-.57-.46,1.17,1.17,0,0,0,.69-.57,1.74,1.74,0,0,0,.21-.82,1.63,1.63,0,0,0-.11-.61,1.82,1.82,0,0,0-.29-.49,1.44,1.44,0,0,0-.55-.41,2.55,2.55,0,0,0-.92-.15m-.25,1a1.2,1.2,0,0,1,.56.1.74.74,0,0,1,.33.71.65.65,0,0,1-.35.66,1.38,1.38,0,0,1-.59.1H11.3V9.19Z"/></svg>