<svg xmlns="http://www.w3.org/2000/svg" viewBox="0 0 142.21 23.15"><defs><style>.a{fill:#0070b7;}.b{fill:#caccc9;}</style></defs><title>Mouldrent_logo</title><path class="a" d="M26.38,11.09a6.74,6.74,0,0,1,1.88,5.08V26H24V16.95c0-2.48-1.32-3.8-3.26-3.8-2.12,0-3.59,1.52-3.59,3.92V26H13V17c0-2.42-1.29-3.83-3.29-3.83S6.13,14.67,6.13,17.1V26H1.91V9.71H6V12a5.54,5.54,0,0,1,5-2.78,5.1,5.1,0,0,1,4.79,2.87,6.94,6.94,0,0,1,5.83-2.87A6.42,6.42,0,0,1,26.38,11.09Z" transform="translate(-1.91 -3.28)"/><path class="a" d="M31.71,11.77A8.43,8.43,0,0,1,38,9.26a8.43,8.43,0,0,1,6.28,2.51,8.26,8.26,0,0,1,2.45,6.07,8.28,8.28,0,0,1-2.45,6.1A8.52,8.52,0,0,1,38,26.43a8.52,8.52,0,0,1-6.28-2.48,8.28,8.28,0,0,1-2.45-6.1A8.26,8.26,0,0,1,31.71,11.77ZM38,22.51a4.24,4.24,0,0,0,3.2-1.35,4.7,4.7,0,0,0,1.32-3.32,4.59,4.59,0,0,0-1.32-3.29A4.25,4.25,0,0,0,38,13.21a4.31,4.31,0,0,0-3.23,1.35,4.56,4.56,0,0,0-1.29,3.29,4.68,4.68,0,0,0,1.29,3.32A4.31,4.31,0,0,0,38,22.51Z" transform="translate(-1.91 -3.28)"/><path class="a" d="M47.71,19.13V9.71h4.22v9.42a3.26,3.26,0,1,0,6.52,0V9.71h4.22v9.42c0,4.58-2.81,7.27-7.48,7.27S47.71,23.71,47.71,19.13Z" transform="translate(-1.91 -3.28)"/><path class="a" d="M68.74,26H64.52V3.28h4.22Z" transform="translate(-1.91 -3.28)"/><path class="a" d="M82.95,3.28h4.22V26H83V24A6.27,6.27,0,0,1,78,26.4,7.63,7.63,0,0,1,72.21,24a8.67,8.67,0,0,1-2.3-6.13,8.65,8.65,0,0,1,2.3-6.1A7.6,7.6,0,0,1,78,9.29a6.37,6.37,0,0,1,5,2.3Zm-1,11.25a4.16,4.16,0,0,0-3.26-1.38,4.27,4.27,0,0,0-3.29,1.38,4.68,4.68,0,0,0-1.26,3.32,4.83,4.83,0,0,0,1.26,3.38,4.35,4.35,0,0,0,3.29,1.35,4.24,4.24,0,0,0,3.26-1.35,4.83,4.83,0,0,0,1.26-3.38A4.68,4.68,0,0,0,81.9,14.53Z" transform="translate(-1.91 -3.28)"/><path class="b" d="M89.44,26V9.89h3.14v2.3a4.8,4.8,0,0,1,4.58-2.72,6.59,6.59,0,0,1,1.91.27l-.3,3.2a5.09,5.09,0,0,0-1.76-.3c-2.51,0-4.28,1.73-4.28,5.11V26Z" transform="translate(-1.91 -3.28)"/><path class="b" d="M114.68,19.22H102.09c.48,2.51,2.24,4.22,5.35,4.22a10.06,10.06,0,0,0,5.47-1.73l1.38,2.42a12.16,12.16,0,0,1-7,2.24c-6,0-8.64-4.22-8.64-8.46a8.31,8.31,0,0,1,2.27-6,7.93,7.93,0,0,1,6-2.39,7.71,7.71,0,0,1,5.68,2.18,8,8,0,0,1,2.21,6A10.71,10.71,0,0,1,114.68,19.22Zm-12.59-2.69h9.39a4.47,4.47,0,0,0-4.58-4.19A4.83,4.83,0,0,0,102.09,16.53Z" transform="translate(-1.91 -3.28)"/><path class="b" d="M116.27,26V9.89h3.23v2.27a5.66,5.66,0,0,1,5.11-2.69,6.25,6.25,0,0,1,4.49,1.73,6.54,6.54,0,0,1,1.85,5V26h-3.32V17.13c0-3-1.56-4.61-3.86-4.61-2.48,0-4.22,1.91-4.22,4.67V26Z" transform="translate(-1.91 -3.28)"/><path class="b" d="M144.12,25.05a7.24,7.24,0,0,1-4.46,1.35c-3.5,0-5.29-2.18-5.29-6.16V12.7h-2.78V9.89h2.81V4.18h3.26V9.89h5.56V12.7h-5.56v7.6c0,2.06.84,3.08,2.48,3.08a5.7,5.7,0,0,0,2.84-.9Z" transform="translate(-1.91 -3.28)"/></svg>