<svg xmlns="http://www.w3.org/2000/svg" viewBox="0 0 200.77 30"><defs><style>.a{fill:#fff;}.b,.c{fill:none;stroke:#0070b7;stroke-width:1.12px;}.b{stroke-miterlimit:10;}.c{stroke-linejoin:round;}.d{fill:#0070b7;}</style></defs><title>1Recurso 4mundimold_logo</title><path class="a" d="M8.58,24.22a4.85,4.85,0,1,1,4.9-4.85,4.87,4.87,0,0,1-4.9,4.85m7-12.8h-14a1,1,0,0,0-1,1V26.32a1,1,0,0,0,1,1h14a1,1,0,0,0,1-1V12.43a1,1,0,0,0-1-1" transform="translate(0 -4.66)"/><path class="b" d="M8.58,24.22a4.85,4.85,0,1,1,4.9-4.85A4.87,4.87,0,0,1,8.58,24.22Zm7-12.8h-14a1,1,0,0,0-1,1V26.32a1,1,0,0,0,1,1h14a1,1,0,0,0,1-1V12.43A1,1,0,0,0,15.59,11.43Z" transform="translate(0 -4.66)"/><path class="a" d="M32.38,23.72a.5.5,0,0,1-.51.5H23.09a.5.5,0,0,1-.51-.5V15a.49.49,0,0,1,.19-.43.35.35,0,0,1,.43,0l4.28,3.54h0l4.28-3.54a.36.36,0,0,1,.43,0,.49.49,0,0,1,.19.43v8.69Zm2.11-12.29h-14a1,1,0,0,0-1,1V26.32a1,1,0,0,0,1,1h14a1,1,0,0,0,1-1V12.43a1,1,0,0,0-1-1" transform="translate(0 -4.66)"/><path class="c" d="M32.38,23.72a.5.5,0,0,1-.51.5H23.09a.5.5,0,0,1-.51-.5V15a.49.49,0,0,1,.19-.43.35.35,0,0,1,.43,0l4.28,3.54h0l4.28-3.54a.36.36,0,0,1,.43,0,.49.49,0,0,1,.19.43v8.69Zm2.11-12.29h-14a1,1,0,0,0-1,1V26.32a1,1,0,0,0,1,1h14a1,1,0,0,0,1-1V12.43A1,1,0,0,0,34.49,11.43Z" transform="translate(0 -4.66)"/><path class="d" d="M45.62,30.22h1v1.66h1.75V30.22h1v4.34h-1V32.69H46.58v1.87h-1Z" transform="translate(0 -4.66)"/><path class="d" d="M50.12,30.22h1v4.34h-1Z" transform="translate(0 -4.66)"/><path class="d" d="M55,34.07a1.46,1.46,0,0,1-1.19.59,2.09,2.09,0,0,1-2.13-2.25,2.11,2.11,0,0,1,2.13-2.29,1.73,1.73,0,0,1,1.83,1.53h-.91a.88.88,0,0,0-.92-.73c-.86,0-1.18.73-1.18,1.49s.32,1.45,1.18,1.45a.93.93,0,0,0,1-.94h-1v-.71h1.82v2.34h-.61Z" transform="translate(0 -4.66)"/><path class="d" d="M56.52,30.22h1v1.66h1.75V30.22h1v4.34h-1V32.69H57.47v1.87h-1Z" transform="translate(0 -4.66)"/><path class="d" d="M62.71,30.22h1v4.34h-1Z" transform="translate(0 -4.66)"/><path class="d" d="M64.5,30.22h.95l1.81,2.91h0V30.22h.89v4.34h-1l-1.8-2.9h0v2.9H64.5Z" transform="translate(0 -4.66)"/><path class="d" d="M69,30.22h.95l1.81,2.91h0V30.22h.89v4.34h-1l-1.8-2.9h0v2.9H69Z" transform="translate(0 -4.66)"/><path class="d" d="M75.44,30.12a2.11,2.11,0,0,1,2.13,2.29,2.13,2.13,0,1,1-4.26,0A2.11,2.11,0,0,1,75.44,30.12Zm0,3.74c.86,0,1.18-.73,1.18-1.45s-.32-1.49-1.18-1.49-1.18.73-1.18,1.49S74.58,33.86,75.44,33.86Z" transform="translate(0 -4.66)"/><path class="d" d="M80.23,34.56H79.16l-1.41-4.34h1l1,3h0l1-3h1Z" transform="translate(0 -4.66)"/><path class="d" d="M83,30.22h1l1.62,4.34h-1l-.33-1H82.61l-.34,1h-1Zm-.09,2.66H84l-.55-1.59h0Z" transform="translate(0 -4.66)"/><path class="d" d="M86.33,31H85v-.8h3.55V31h-1.3v3.53h-1Z" transform="translate(0 -4.66)"/><path class="d" d="M89.08,30.22h1v4.34h-1Z" transform="translate(0 -4.66)"/><path class="d" d="M92.81,30.12a2.11,2.11,0,0,1,2.13,2.29,2.13,2.13,0,1,1-4.26,0A2.11,2.11,0,0,1,92.81,30.12Zm0,3.74c.86,0,1.18-.73,1.18-1.45s-.32-1.49-1.18-1.49-1.18.73-1.18,1.49S92,33.86,92.81,33.86Z" transform="translate(0 -4.66)"/><path class="d" d="M95.59,30.22h.95l1.81,2.91h0V30.22h.89v4.34h-1l-1.8-2.9h0v2.9h-.89Z" transform="translate(0 -4.66)"/><path class="d" d="M101.78,30.22h1v4.34h-1Z" transform="translate(0 -4.66)"/><path class="d" d="M103.57,30.22h.95l1.81,2.91h0V30.22h.89v4.34h-1l-1.8-2.9h0v2.9h-.89Z" transform="translate(0 -4.66)"/><path class="d" d="M110.61,33.19a1.44,1.44,0,0,1-2.87.13v-.38h.86v.19c0,.42.1.72.55.72s.5-.4.5-.71V30.22h1Z" transform="translate(0 -4.66)"/><path class="d" d="M111.44,30.22h3.24V31H112.4V32h2.1v.74h-2.1v1.06h2.34v.8h-3.29Z" transform="translate(0 -4.66)"/><path class="d" d="M118.27,31.68a1,1,0,0,0-.95-.76c-.86,0-1.18.73-1.18,1.49s.32,1.45,1.18,1.45a1,1,0,0,0,1-1h.92a1.82,1.82,0,0,1-1.91,1.77,2.1,2.1,0,0,1-2.13-2.25,2.11,2.11,0,0,1,2.13-2.29,1.76,1.76,0,0,1,1.87,1.56Z" transform="translate(0 -4.66)"/><path class="d" d="M120.83,31h-1.3v-.8h3.55V31h-1.3v3.53h-1Z" transform="translate(0 -4.66)"/><path class="d" d="M123.58,30.22h1v4.34h-1Z" transform="translate(0 -4.66)"/><path class="d" d="M127.32,30.12a2.11,2.11,0,0,1,2.13,2.29,2.14,2.14,0,1,1-4.26,0A2.11,2.11,0,0,1,127.32,30.12Zm0,3.74c.86,0,1.18-.73,1.18-1.45s-.32-1.49-1.18-1.49-1.18.73-1.18,1.49S126.46,33.86,127.32,33.86Z" transform="translate(0 -4.66)"/><path class="d" d="M130.1,30.22H131l1.81,2.91h0V30.22h.89v4.34h-1l-1.8-2.9h0v2.9h-.89Z" transform="translate(0 -4.66)"/><path class="d" d="M136.28,30.22h1.34l1,3h0l1-3H141v4.34h-.89V31.49h0L139,34.56h-.73l-1.06-3h0v3h-.89Z" transform="translate(0 -4.66)"/><path class="d" d="M143.73,30.12a2.11,2.11,0,0,1,2.13,2.29,2.14,2.14,0,1,1-4.26,0A2.11,2.11,0,0,1,143.73,30.12Zm0,3.74c.86,0,1.18-.73,1.18-1.45s-.32-1.49-1.18-1.49-1.18.73-1.18,1.49S142.88,33.86,143.73,33.86Z" transform="translate(0 -4.66)"/><path class="d" d="M150.19,32.92a1.62,1.62,0,0,1-1.85,1.74c-1.17,0-1.85-.56-1.85-1.74v-2.7h1v2.7c0,.47.12.94.89.94s.9-.29.9-.94v-2.7h1Z" transform="translate(0 -4.66)"/><path class="d" d="M151,30.22h1v3.53h2.11v.8H151Z" transform="translate(0 -4.66)"/><path class="d" d="M154.61,30.22h1.87a1.9,1.9,0,0,1,2,2.14,1.93,1.93,0,0,1-2,2.19h-1.87Zm1,3.53h.85c.55,0,1.08-.34,1.08-1.3S157.19,31,156.24,31h-.68Z" transform="translate(0 -4.66)"/><path class="d" d="M159.76,33.12c0,.58.45.8,1,.8.33,0,.84-.1.84-.54s-.66-.54-1.29-.72S159,32.23,159,31.43s.84-1.31,1.62-1.31,1.74.4,1.74,1.4h-.92c0-.52-.39-.66-.86-.66-.3,0-.66.13-.66.49s.21.38,1.29.66c.32.07,1.29.29,1.29,1.26,0,.8-.62,1.39-1.8,1.39-1,0-1.86-.47-1.85-1.54Z" transform="translate(0 -4.66)"/><path class="d" d="M45.66,11.08H50v2.28h.06a6,6,0,0,1,5.15-2.74c2.12,0,4,.75,4.92,2.8a6.16,6.16,0,0,1,5.08-2.8c3.58,0,6.16,1.66,6.16,6V27.92H66.77V18.38c0-2.25-.2-4.1-2.83-4.1s-3.09,2.18-3.09,4.27v9.38H56.21V18.48c0-2,.13-4.2-2.8-4.2-.91,0-3.13.59-3.13,3.88v9.77H45.66Z" transform="translate(0 -4.66)"/><path class="d" d="M88.92,27.92h-4.4V25.58h-.1a5.93,5.93,0,0,1-5.15,2.8c-4.92,0-6.16-2.77-6.16-6.94V11.08h4.63v9.51c0,2.77.78,4.14,3,4.14,2.51,0,3.58-1.4,3.58-4.82V11.08h4.63Z" transform="translate(0 -4.66)"/><path class="d" d="M90.52,11.08h4.4v2.35H95a5.93,5.93,0,0,1,5.15-2.8c4.92,0,6.16,2.77,6.16,6.94V27.92h-4.63V18.41c0-2.77-.78-4.14-3-4.14-2.51,0-3.58,1.4-3.58,4.82v8.83H90.52Z" transform="translate(0 -4.66)"/><path class="d" d="M119.94,25.77h-.07a5.56,5.56,0,0,1-5.12,2.61c-5.08,0-7.56-4.33-7.56-9,0-4.53,2.51-8.73,7.46-8.73a5.79,5.79,0,0,1,5,2.51h.07V4.66h4.63V27.92h-4.4Zm-4-11.66c-3,0-4.07,2.64-4.07,5.38s1.21,5.41,4.07,5.41c3,0,4-2.67,4-5.44S118.9,14.11,115.9,14.11Z" transform="translate(0 -4.66)"/><path class="d" d="M130.63,8.47H126V4.66h4.63ZM126,11.08h4.63V27.92H126Z" transform="translate(0 -4.66)"/><path class="d" d="M132.48,11.08h4.37v2.28h.07a6,6,0,0,1,5.15-2.74c2.12,0,4,.75,4.92,2.8a6.16,6.16,0,0,1,5.08-2.8c3.58,0,6.16,1.66,6.16,6V27.92h-4.63V18.38c0-2.25-.2-4.1-2.83-4.1s-3.09,2.18-3.09,4.27v9.38H143V18.48c0-2,.13-4.2-2.8-4.2-.91,0-3.13.59-3.13,3.88v9.77h-4.63Z" transform="translate(0 -4.66)"/><path class="d" d="M168.13,10.62c5.31,0,8.73,3.52,8.73,8.89s-3.42,8.86-8.73,8.86-8.7-3.52-8.7-8.86S162.85,10.62,168.13,10.62Zm0,14.27c3.16,0,4.1-2.67,4.1-5.37s-.95-5.41-4.1-5.41-4.07,2.7-4.07,5.41S165,24.89,168.13,24.89Z" transform="translate(0 -4.66)"/><path class="d" d="M178,4.66h4.63V27.92H178Z" transform="translate(0 -4.66)"/><path class="d" d="M196.37,25.77h-.07a5.56,5.56,0,0,1-5.11,2.61c-5.08,0-7.56-4.33-7.56-9,0-4.53,2.51-8.73,7.46-8.73a5.79,5.79,0,0,1,5,2.51h.06V4.66h4.63V27.92h-4.4Zm-4-11.66c-3,0-4.07,2.64-4.07,5.38s1.21,5.41,4.07,5.41c3,0,4-2.67,4-5.44S195.33,14.11,192.33,14.11Z" transform="translate(0 -4.66)"/></svg>